<?xml version="1.0" encoding="UTF-8" standalone="no"?>
<!DOCTYPE svg PUBLIC "-//W3C//DTD SVG 1.1//EN"
 "http://www.w3.org/Graphics/SVG/1.1/DTD/svg11.dtd">
<!-- Generated by graphviz version 2.36.0 (20140111.2315)
 -->
<!-- Title: models_diagram Pages: 1 -->
<svg width="401pt" height="260pt"
 viewBox="0.00 0.00 401.00 260.00" xmlns="http://www.w3.org/2000/svg" xmlns:xlink="http://www.w3.org/1999/xlink">
<g id="graph0" class="graph" transform="scale(1 1) rotate(0) translate(4 256)">
<title>models_diagram</title>
<polygon fill="white" stroke="none" points="-4,4 -4,-256 397,-256 397,4 -4,4"/>
<!-- _diagram_info -->
<g id="node1" class="node"><title>_diagram_info</title>
<text text-anchor="start" x="7" y="-237.6" font-family="Times,serif" font-size="13.00">Models diagram</text>
<text text-anchor="start" x="7" y="-223.6" font-family="Times,serif" font-size="13.00">Date: Apr 10 2015 &#45; 14:59</text>
<text text-anchor="start" x="7" y="-209.6" font-family="Times,serif" font-size="13.00">Migration version: 20141208190357</text>
<text text-anchor="start" x="7" y="-195.6" font-family="Times,serif" font-size="13.00">Generated by RailRoady 1.3.0</text>
<text text-anchor="start" x="7" y="-181.6" font-family="Times,serif" font-size="13.00">http://railroady.prestonlee.com</text>
</g>
<!-- SeoMetum -->
<g id="node2" class="node"><title>SeoMetum</title>
<path fill="none" stroke="black" d="M255,-1C255,-1 369,-1 369,-1 375,-1 381,-7 381,-13 381,-13 381,-125 381,-125 381,-131 375,-137 369,-137 369,-137 255,-137 255,-137 249,-137 243,-131 243,-125 243,-125 243,-13 243,-13 243,-7 249,-1 255,-1"/>
<text text-anchor="middle" x="312" y="-121.8" font-family="Times,serif" font-size="14.00">SeoMetum</text>
<polyline fill="none" stroke="black" points="243,-114 381,-114 "/>
<text text-anchor="start" x="251" y="-98.8" font-family="Times,serif" font-size="14.00">id :integer</text>
<text text-anchor="start" x="251" y="-83.8" font-family="Times,serif" font-size="14.00">seo_meta_id :integer</text>
<text text-anchor="start" x="251" y="-68.8" font-family="Times,serif" font-size="14.00">seo_meta_type :string</text>
<text text-anchor="start" x="251" y="-53.8" font-family="Times,serif" font-size="14.00">browser_title :string</text>
<text text-anchor="start" x="251" y="-38.8" font-family="Times,serif" font-size="14.00">meta_description :text</text>
<text text-anchor="start" x="251" y="-23.8" font-family="Times,serif" font-size="14.00">created_at :datetime</text>
<text text-anchor="start" x="251" y="-8.8" font-family="Times,serif" font-size="14.00">updated_at :datetime</text>
</g>
<!-- ActiveRecord::Base -->
<g id="node3" class="node"><title>ActiveRecord::Base</title>
<ellipse fill="none" stroke="black" cx="312" cy="-213" rx="81.3646" ry="18"/>
<text text-anchor="middle" x="312" y="-209.3" font-family="Times,serif" font-size="14.00">ActiveRecord::Base</text>
</g>
<!-- ActiveRecord::Base&#45;&gt;SeoMetum -->
<g id="edge1" class="edge"><title>ActiveRecord::Base&#45;&gt;SeoMetum</title>
<path fill="none" stroke="black" d="M312,-194.871C312,-180.34 312,-158.504 312,-137.136"/>
</g>
</g>
</svg>
